# xmcd
# 
# Track frame offsets:
#	182
#	21972
#	54970
#	83555
#	126417
#	149967
#	192502
#	223402
#	267507
#	298132
#
# Disc length: 4349 seconds
#
# Revision: 1
# Processed by: cddbd v1.5.1PL0 Copyright (c) Steve Scherf et al.
# Submitted via: Audio-CD-Archiv 3.00.487
#
DISCID=ab10fb0a
DTITLE=Albert Collins And The Icebreakers - Sudden Frost
DYEAR=1900
DGENRE=blues
TTITLE0=Tired Man
TTITLE1=I've Got A Mind To Travel
TTITLE2=Instrumental
TTITLE3=Cold, Cold Feeling
TTITLE4=Woke Up This Morning
TTITLE5=Stormy Monday
TTITLE6=My Guitar Like A Miracle
TTITLE7=Frosty
TTITLE8=Head Rag
TTITLE9=Instrumental
EXTD=
EXTT0=
EXTT1=
EXTT2=
EXTT3=
EXTT4=
EXTT5=
EXTT6=
EXTT7=
EXTT8=
EXTT9=
PLAYORDER=
